<svg viewBox="0 0 190 40" fill="none" xmlns="http://www.w3.org/2000/svg">
  <!-- QuickBooks qb Circle Icon -->
  <g transform="translate(6, 6)">
    <circle cx="14" cy="14" r="14" fill="#2CA01C"/>
    <!-- q loop and stem -->
    <path d="M12.5 7.5v13a4.5 4.5 0 0 1-4.5-4.5 4.5 4.5 0 0 1 4.5-4.5h1.5v-2h-1.5a6.5 6.5 0 0 0-6.5 6.5 6.5 6.5 0 0 0 6.5 6.5h1.5v-15h-1.5z" fill="#FFFFFF"/>
    <!-- b loop and stem -->
    <path d="M15.5 20.5v-13a4.5 4.5 0 0 1 4.5 4.5 4.5 4.5 0 0 1-4.5 4.5h-1.5v2h1.5a6.5 6.5 0 0 0 6.5-6.5 6.5 6.5 0 0 0-6.5-6.5h-1.5v15h1.5z" fill="#FFFFFF"/>
  </g>
  <!-- QuickBooks Wordmark -->
  <text x="44" y="26" font-family="-apple-system, BlinkMacSystemFont, 'Segoe UI', Roboto, sans-serif" font-size="18" font-weight="700" letter-spacing="-0.3px" fill="#132B40">quickbooks</text>
</svg>
